<?xml version="1.0" encoding="utf-8"?>
<!-- Generator: Adobe Illustrator 14.0.0, SVG Export Plug-In . SVG Version: 6.00 Build 43363)  -->
<!DOCTYPE svg PUBLIC "-//W3C//DTD SVG 1.1//EN" "http://www.w3.org/Graphics/SVG/1.1/DTD/svg11.dtd">
<svg version="1.1" id="圖層_1" xmlns="http://www.w3.org/2000/svg" xmlns:xlink="http://www.w3.org/1999/xlink" x="0px" y="0px"
	 width="46px" height="46px" viewBox="0 0 46 46" enable-background="new 0 0 46 46" xml:space="preserve">
<path fill="#757575" d="M17.313,22.526c-1.308,0-2.37,1.062-2.37,2.371c0,1.307,1.063,2.369,2.37,2.369s2.37-1.063,2.37-2.369
	C19.683,23.588,18.62,22.526,17.313,22.526z M28.688,22.526c-1.307,0-2.369,1.062-2.369,2.371c0,1.307,1.063,2.369,2.369,2.369
	c1.308,0,2.371-1.063,2.371-2.369C31.059,23.588,29.994,22.526,28.688,22.526z M23,4.042C12.535,4.042,4.042,12.535,4.042,23
	c0,10.464,8.493,18.958,18.958,18.958c10.464,0,18.958-8.494,18.958-18.958C41.958,12.535,33.464,4.042,23,4.042z M23,38.167
	c-8.361,0-15.166-6.806-15.166-15.167c0-0.55,0.037-1.1,0.094-1.63c4.475-1.991,8.02-5.649,9.877-10.181
	c3.432,4.854,9.082,8.02,15.47,8.02c1.479,0,2.902-0.171,4.267-0.493c0.397,1.347,0.626,2.786,0.626,4.284
	C38.167,31.361,31.361,38.167,23,38.167z"/>
<path fill="none" d="M0.25,0.25h45.5v45.5H0.25V0.25z"/>
</svg>
